<?xml version="1.0" standalone="no"?>
<!DOCTYPE svg PUBLIC "-//W3C//DTD SVG 20010904//EN"
 "http://www.w3.org/TR/2001/REC-SVG-20010904/DTD/svg10.dtd">
<svg version="1.0" xmlns="http://www.w3.org/2000/svg"
 width="3000.000000pt" height="3000.000000pt" viewBox="0 0 3000.000000 3000.000000"
 preserveAspectRatio="xMidYMid meet">
<metadata>
Created by potrace 1.14, written by Peter Selinger 2001-2017
</metadata>
<g transform="translate(0.000000,3000.000000) scale(0.100000,-0.100000)"
fill="#000000" stroke="none">
<path d="M0 15000 l0 -15000 15000 0 15000 0 0 15000 0 15000 -15000 0 -15000
0 0 -15000z m28890 8966 l0 -1904 -257 -8 c-359 -12 -1285 -9 -1603 5 -1294
58 -2244 173 -3596 436 -155 30 -285 55 -290 55 -5 0 97 -57 226 -126 861
-463 1482 -947 1991 -1549 519 -616 788 -1318 818 -2135 38 -1068 -241 -2012
-836 -2830 -281 -386 -644 -750 -1048 -1050 -787 -586 -1816 -1045 -3171
-1415 -1123 -307 -2630 -531 -4339 -645 -937 -62 -1637 -83 -3305 -100 -934
-10 -1167 -16 -1600 -40 -1057 -60 -1803 -191 -2191 -385 -216 -109 -376 -259
-467 -441 -106 -211 -113 -524 -16 -716 62 -122 186 -243 317 -310 185 -93
476 -156 817 -178 109 -6 1797 -10 5005 -10 4641 0 5150 -3 5775 -30 1373 -60
2573 -217 3341 -435 722 -206 1297 -490 1747 -863 632 -524 1039 -1353 1186
-2417 59 -429 66 -614 66 -1752 l0 -993 -3645 0 -3645 0 0 418 c0 229 -5 471
-10 537 -40 485 -280 794 -713 919 -276 80 -894 140 -1702 166 -201 6 -2051
10 -4960 10 -2741 0 -4806 4 -5045 10 -1638 40 -2754 198 -3713 526 -473 163
-904 375 -1180 582 -421 317 -745 720 -906 1125 -46 115 -118 370 -151 536
-54 271 -64 379 -64 701 0 255 3 314 22 439 116 741 467 1272 1137 1717 610
406 1453 697 2560 883 774 130 1907 241 2940 286 72 3 168 8 215 12 l85 6
-195 28 c-856 125 -1656 290 -2295 474 -1839 529 -3178 1307 -3981 2311 -363
455 -649 983 -828 1529 -280 856 -350 1863 -195 2785 223 1331 969 2505 2154
3393 1143 856 2808 1520 4745 1891 1337 256 2870 404 4605 445 176 4 3892 9
8258 9 l7937 2 0 -1904z"/>
<path d="M13370 23745 c-8 -2 -49 -9 -90 -15 -368 -59 -666 -281 -833 -622
-117 -239 -174 -488 -202 -891 -8 -120 -17 -193 -26 -203 -19 -23 -50 -35
-514 -189 -616 -205 -903 -317 -1235 -481 -501 -249 -833 -525 -970 -808 -53
-110 -70 -187 -70 -329 0 -436 225 -684 681 -751 129 -19 213 -24 554 -36 338
-11 445 -31 533 -97 74 -56 80 -142 22 -318 -47 -140 -246 -531 -507 -990
-374 -661 -553 -1005 -686 -1320 -170 -402 -254 -729 -245 -950 6 -144 42
-205 147 -247 l56 -23 1144 -3 c1264 -3 1188 -6 1294 60 104 66 193 193 525
747 276 462 363 591 472 703 68 69 93 88 123 93 55 11 104 -15 180 -94 109
-114 176 -215 470 -706 353 -590 439 -706 572 -771 l60 -29 1139 -3 c998 -2
1147 0 1200 13 83 21 135 59 166 120 23 46 25 61 24 180 -1 303 -131 704 -414
1280 -123 248 -223 434 -502 929 -270 478 -372 667 -443 824 -88 195 -109 263
-110 364 0 85 1 87 34 122 77 80 187 103 546 116 347 12 437 18 564 36 452 66
681 319 681 752 0 59 -7 135 -15 170 -60 256 -269 502 -623 736 -387 255 -862
459 -1729 741 -180 59 -350 117 -379 130 -62 28 -58 13 -74 260 -13 212 -32
345 -71 504 -140 569 -462 895 -967 982 -86 14 -157 19 -290 18 -98 -1 -184
-3 -192 -4z"/>
</g>
</svg>
